0
SECTION
2
HEADER
9
$INSUNITS
70
4
9
$ACADVER
1
AC1014
9
$HANDSEED
5
FFFF
0
ENDSEC
0
SECTION
2
TABLES
0
TABLE
2
VPORT
5
8
100
AcDbSymbolTable
0
ENDTAB
0
TABLE
2
LTYPE
5
5
100
AcDbSymbolTable
0
LTYPE
5
14
100
AcDbSymbolTableRecord
100
AcDbLinetypeTableRecord
2
BYBLOCK
70
0
0
LTYPE
5
15
100
AcDbSymbolTableRecord
100
AcDbLinetypeTableRecord
2
BYLAYER
70
0
0
ENDTAB
0
TABLE
2
LAYER
5
2
100
AcDbSymbolTable
70
2
0
LAYER
5
50
100
AcDbSymbolTableRecord
100
AcDbLayerTableRecord
2
0
70
0
6
CONTINUOUS
0
ENDTAB
0
TABLE
2
STYLE
5
3
100
AcDbSymbolTable
70
1
0
STYLE
5
11
100
AcDbSymbolTableRecord
100
AcDbTextStyleTableRecord
2
STANDARD
70
0
0
ENDTAB
0
TABLE
2
VIEW
5
6
100
AcDbSymbolTable
70
0
0
ENDTAB
0
TABLE
2
UCS
5
7
100
AcDbSymbolTable
70
0
0
ENDTAB
0
TABLE
2
APPID
5
9
100
AcDbSymbolTable
70
2
0
APPID
5
12
100
AcDbSymbolTableRecord
100
AcDbRegAppTableRecord
2
ACAD
70
0
0
ENDTAB
0
TABLE
2
DIMSTYLE
5
A
100
AcDbSymbolTable
70
1
0
ENDTAB
0
TABLE
2
BLOCK_RECORD
5
1
100
AcDbSymbolTable
70
1
0
BLOCK_RECORD
5
1F
100
AcDbSymbolTableRecord
100
AcDbBlockTableRecord
2
*MODEL_SPACE
0
BLOCK_RECORD
5
1B
100
AcDbSymbolTableRecord
100
AcDbBlockTableRecord
2
*PAPER_SPACE
0
ENDTAB
0
ENDSEC
0
SECTION
2
BLOCKS
0
BLOCK
5
20
100
AcDbEntity
100
AcDbBlockBegin
2
*MODEL_SPACE
0
ENDBLK
5
21
100
AcDbEntity
100
AcDbBlockEnd
0
BLOCK
5
1C
100
AcDbEntity
100
AcDbBlockBegin
2
*PAPER_SPACE
0
ENDBLK
5
1D
100
AcDbEntity
100
AcDbBlockEnd
0
ENDSEC
0
SECTION
2
ENTITIES
0
LWPOLYLINE
5
100
100
AcDbEntity
8
0
100
AcDbPolyline
90
4
70
1
43
0.0
10
-114.66306804705627
20
-45.454131823062554
10
-114.66306804705627
20
-42.954131823062554
10
-84.663068047056271
20
-42.954131823062554
10
-84.663068047056271
20
-45.454131823062554
0
LWPOLYLINE
5
101
100
AcDbEntity
8
0
100
AcDbPolyline
90
4
70
1
43
0.0
10
-181.32973471372296
20
-45.454131823062554
10
-181.32973471372296
20
-42.954131823062554
10
-151.32973471372296
20
-42.954131823062554
10
-151.32973471372293
20
-45.454131823062554
0
LWPOLYLINE
5
102
100
AcDbEntity
8
0
100
AcDbPolyline
90
4
70
1
43
0.0
10
-247.99640138038961
20
-45.454131823062554
10
-247.99640138038961
20
-42.954131823062554
10
-217.99640138038961
20
-42.954131823062554
10
-217.99640138038961
20
-45.454131823062554
0
LWPOLYLINE
5
103
100
AcDbEntity
8
0
100
AcDbPolyline
90
4
70
1
43
0.0
10
-314.6630680470563
20
-45.454131823062554
10
-314.6630680470563
20
-42.954131823062554
10
-284.6630680470563
20
-42.954131823062554
10
-284.6630680470563
20
-45.454131823062554
0
LWPOLYLINE
5
104
100
AcDbEntity
8
0
100
AcDbPolyline
90
4
70
1
43
0.0
10
-181.32973471372296
20
-83.454131823062568
10
-181.32973471372296
20
-80.954131823062568
10
-151.32973471372296
20
-80.954131823062568
10
-151.32973471372293
20
-83.454131823062568
0
LWPOLYLINE
5
105
100
AcDbEntity
8
0
100
AcDbPolyline
90
4
70
1
43
0.0
10
-114.66306804705627
20
-83.454131823062568
10
-114.66306804705627
20
-80.954131823062568
10
-84.663068047056271
20
-80.954131823062568
10
-84.663068047056271
20
-83.454131823062568
0
LWPOLYLINE
5
106
100
AcDbEntity
8
0
100
AcDbPolyline
90
4
70
1
43
0.0
10
-314.6630680470563
20
-159.45413182306257
10
-314.6630680470563
20
-156.95413182306257
10
-284.6630680470563
20
-156.95413182306257
10
-284.6630680470563
20
-159.45413182306257
0
LWPOLYLINE
5
107
100
AcDbEntity
8
0
100
AcDbPolyline
90
4
70
1
43
0.0
10
-114.66306804705627
20
-197.45413182306254
10
-114.66306804705627
20
-194.95413182306254
10
-84.663068047056271
20
-194.95413182306254
10
-84.663068047056271
20
-197.45413182306254
0
LWPOLYLINE
5
108
100
AcDbEntity
8
0
100
AcDbPolyline
90
4
70
1
43
0.0
10
-181.32973471372296
20
-197.45413182306254
10
-181.32973471372296
20
-194.95413182306254
10
-151.32973471372296
20
-194.95413182306254
10
-151.32973471372293
20
-197.45413182306254
0
LWPOLYLINE
5
109
100
AcDbEntity
8
0
100
AcDbPolyline
90
4
70
1
43
0.0
10
-247.99640138038961
20
-197.45413182306254
10
-247.99640138038961
20
-194.95413182306254
10
-217.99640138038961
20
-194.95413182306254
10
-217.99640138038961
20
-197.45413182306254
0
LWPOLYLINE
5
110
100
AcDbEntity
8
0
100
AcDbPolyline
90
4
70
1
43
0.0
10
-314.6630680470563
20
-197.45413182306254
10
-314.6630680470563
20
-194.95413182306254
10
-284.6630680470563
20
-194.95413182306254
10
-284.6630680470563
20
-197.45413182306254
0
LWPOLYLINE
5
111
100
AcDbEntity
8
0
100
AcDbPolyline
90
4
70
1
43
0.0
10
-114.66306804705627
20
-235.45413182306254
10
-114.66306804705627
20
-232.95413182306254
10
-84.663068047056271
20
-232.95413182306254
10
-84.663068047056271
20
-235.45413182306254
0
LWPOLYLINE
5
112
100
AcDbEntity
8
0
100
AcDbPolyline
90
4
70
1
43
0.0
10
-181.32973471372296
20
-235.45413182306254
10
-181.32973471372296
20
-232.95413182306254
10
-151.32973471372296
20
-232.95413182306254
10
-151.32973471372293
20
-235.45413182306254
0
LWPOLYLINE
5
113
100
AcDbEntity
8
0
100
AcDbPolyline
90
4
70
1
43
0.0
10
-247.99640138038961
20
-235.45413182306254
10
-247.99640138038961
20
-232.95413182306254
10
-217.99640138038961
20
-232.95413182306254
10
-217.99640138038961
20
-235.45413182306254
0
LWPOLYLINE
5
114
100
AcDbEntity
8
0
100
AcDbPolyline
90
4
70
1
43
0.0
10
-314.6630680470563
20
-235.45413182306254
10
-314.6630680470563
20
-232.95413182306254
10
-284.6630680470563
20
-232.95413182306254
10
-284.6630680470563
20
-235.45413182306254
0
LWPOLYLINE
5
115
100
AcDbEntity
8
0
100
AcDbPolyline
90
4
70
1
43
0.0
10
-314.6630680470563
20
-83.454131823062568
10
-314.6630680470563
20
-80.954131823062568
10
-284.6630680470563
20
-80.954131823062568
10
-284.6630680470563
20
-83.454131823062568
0
LWPOLYLINE
5
116
100
AcDbEntity
8
0
100
AcDbPolyline
90
4
70
1
43
0.0
10
-247.99640138038961
20
-121.45413182306257
10
-247.99640138038961
20
-118.95413182306257
10
-217.99640138038961
20
-118.95413182306257
10
-217.99640138038961
20
-121.45413182306257
0
LWPOLYLINE
5
117
100
AcDbEntity
8
0
100
AcDbPolyline
90
4
70
1
43
0.0
10
-247.99640138038961
20
-83.454131823062568
10
-247.99640138038961
20
-80.954131823062568
10
-217.99640138038961
20
-80.954131823062568
10
-217.99640138038961
20
-83.454131823062568
0
LWPOLYLINE
5
118
100
AcDbEntity
8
0
100
AcDbPolyline
90
4
70
1
43
0.0
10
-181.32973471372296
20
-121.45413182306257
10
-181.32973471372296
20
-118.95413182306257
10
-151.32973471372296
20
-118.95413182306257
10
-151.32973471372293
20
-121.45413182306257
0
LWPOLYLINE
5
119
100
AcDbEntity
8
0
100
AcDbPolyline
90
4
70
1
43
0.0
10
-114.66306804705627
20
-121.45413182306257
10
-114.66306804705627
20
-118.95413182306257
10
-84.663068047056271
20
-118.95413182306257
10
-84.663068047056271
20
-121.45413182306257
0
LWPOLYLINE
5
120
100
AcDbEntity
8
0
100
AcDbPolyline
90
4
70
1
43
0.0
10
-247.99640138038961
20
-159.45413182306257
10
-247.99640138038961
20
-156.95413182306257
10
-217.99640138038961
20
-156.95413182306257
10
-217.99640138038961
20
-159.45413182306257
0
LWPOLYLINE
5
121
100
AcDbEntity
8
0
100
AcDbPolyline
90
4
70
1
43
0.0
10
-181.32973471372296
20
-159.45413182306257
10
-181.32973471372296
20
-156.95413182306257
10
-151.32973471372296
20
-156.95413182306257
10
-151.32973471372293
20
-159.45413182306257
0
LWPOLYLINE
5
122
100
AcDbEntity
8
0
100
AcDbPolyline
90
4
70
1
43
0.0
10
-114.66306804705627
20
-159.45413182306257
10
-114.66306804705627
20
-156.95413182306257
10
-84.663068047056271
20
-156.95413182306257
10
-84.663068047056271
20
-159.45413182306257
0
LWPOLYLINE
5
123
100
AcDbEntity
8
0
100
AcDbPolyline
90
4
70
1
43
0.0
10
-314.6630680470563
20
-121.45413182306257
10
-314.6630680470563
20
-118.95413182306257
10
-284.6630680470563
20
-118.95413182306257
10
-284.6630680470563
20
-121.45413182306257
0
LWPOLYLINE
5
124
100
AcDbEntity
8
0
100
AcDbPolyline
90
40
70
1
43
0.0
10
-350
20
-182.55580922147277
10
-347.5
20
-182.55580922147277
10
-347.5
20
-222.3058092214728
10
-350
20
-222.3058092214728
10
-350
20
-260
10
-50
20
-260
10
-50
20
-222.3058092214728
10
-52.5
20
-222.3058092214728
10
-52.5
20
-182.55580922147277
10
-50
20
-182.55580922147277
10
-50
20
-154.875
10
-52.5
20
-154.875
10
-52.5
20
-115.12500000000001
10
-50
20
-115.12499999999996
10
-50
20
-87.444190778527229
10
-52.5
20
-87.444190778527229
10
-52.5
20
-47.694190778527229
10
-50
20
-47.694190778527229
10
-50
20
-10
10
-83.088701103821876
20
-10
10
-83.088701103821876
20
-12.499999999999998
10
-122.83870110382189
20
-12.499999999999998
10
-122.83870110382189
20
-10
10
-180.19285714285715
20
-10
10
-180.19285714285715
20
-12.5
10
-219.94285714285718
20
-12.5
10
-219.94285714285718
20
-10
10
-277.13811830318616
20
-10
10
-277.13811830318616
20
-12.5
10
-316.88811830318622
20
-12.5
10
-316.88811830318622
20
-10
10
-350
20
-10
10
-350
20
-47.694190778527229
10
-347.5
20
-47.694190778527229
10
-347.5
20
-87.444190778527229
10
-350
20
-87.444190778527229
10
-350
20
-115.125
10
-347.5
20
-115.125
10
-347.5
20
-154.875
10
-350
20
-154.875
0
LWPOLYLINE
5
125
100
AcDbEntity
8
0
100
AcDbPolyline
90
22
70
1
43
0.0
10
-350.00000000000006
20
-362.56174061719065
10
-350.00000000000006
20
-382.56174061719071
42
0.41421356237309293
10
-340
20
-392.56174061719071
10
-60
20
-392.56174061719071
42
0.41421356237308982
10
-49.999999999999964
20
-382.56174061719082
10
-50
20
-362.56174061719082
10
-84.663068047056271
20
-362.56174061719082
10
-84.663068047056271
20
-282.56174061719071
10
-114.66306804705627
20
-282.56174061719071
10
-114.66306804705627
20
-362.56174061719082
10
-151.32973471372296
20
-362.56174061719082
10
-151.32973471372296
20
-282.56174061719071
10
-181.32973471372296
20
-282.56174061719071
10
-181.32973471372296
20
-362.56174061719082
10
-217.99640138038961
20
-362.56174061719071
10
-217.99640138038961
20
-282.56174061719071
10
-247.99640138038961
20
-282.56174061719071
10
-247.99640138038961
20
-362.56174061719082
10
-284.66306804705624
20
-362.56174061719082
10
-284.66306804705624
20
-282.56174061719071
10
-314.66306804705624
20
-282.56174061719071
10
-314.6630680470563
20
-362.56174061719065
0
LWPOLYLINE
5
126
100
AcDbEntity
8
0
100
AcDbPolyline
90
22
70
1
43
0.0
10
-4.1073184335488447e-14
20
-337.56174061719065
10
-5.3290705182007514e-14
20
-357.56174061719071
42
0.41421356237309243
10
10
20
-367.56174061719071
10
290
20
-367.56174061719071
42
0.41421356237308982
10
300.00000000000006
20
-357.56174061719082
10
300
20
-337.56174061719082
10
265.3369319529437
20
-337.56174061719082
10
265.3369319529437
20
-257.56174061719071
10
235.33693195294373
20
-257.56174061719071
10
235.33693195294373
20
-337.56174061719082
10
198.67026528627704
20
-337.56174061719082
10
198.67026528627704
20
-257.56174061719071
10
168.67026528627704
20
-257.56174061719071
10
168.67026528627704
20
-337.56174061719082
10
132.00359861961039
20
-337.56174061719071
10
132.00359861961039
20
-257.56174061719071
10
102.0035986196104
20
-257.56174061719071
10
102.0035986196104
20
-337.56174061719082
10
65.336931952943743
20
-337.56174061719082
10
65.336931952943743
20
-257.56174061719071
10
35.336931952943758
20
-257.56174061719071
10
35.336931952943758
20
-337.56174061719065
0
LWPOLYLINE
5
127
100
AcDbEntity
8
0
100
AcDbPolyline
90
4
70
1
43
0.0
10
235.33693195294373
20
-35.454131823062554
10
235.33693195294373
20
-32.954131823062554
10
265.3369319529437
20
-32.954131823062554
10
265.3369319529437
20
-35.454131823062554
0
LWPOLYLINE
5
128
100
AcDbEntity
8
0
100
AcDbPolyline
90
4
70
1
43
0.0
10
168.67026528627704
20
-35.454131823062554
10
168.67026528627704
20
-32.954131823062554
10
198.67026528627704
20
-32.954131823062554
10
198.67026528627707
20
-35.454131823062554
0
LWPOLYLINE
5
129
100
AcDbEntity
8
0
100
AcDbPolyline
90
4
70
1
43
0.0
10
102.0035986196104
20
-35.454131823062554
10
102.0035986196104
20
-32.954131823062554
10
132.00359861961039
20
-32.954131823062554
10
132.00359861961039
20
-35.454131823062554
0
LWPOLYLINE
5
130
100
AcDbEntity
8
0
100
AcDbPolyline
90
4
70
1
43
0.0
10
35.336931952943722
20
-35.454131823062554
10
35.336931952943722
20
-32.954131823062554
10
65.336931952943729
20
-32.954131823062554
10
65.336931952943729
20
-35.454131823062554
0
LWPOLYLINE
5
131
100
AcDbEntity
8
0
100
AcDbPolyline
90
4
70
1
43
0.0
10
168.67026528627704
20
-73.454131823062568
10
168.67026528627704
20
-70.954131823062568
10
198.67026528627704
20
-70.954131823062568
10
198.67026528627707
20
-73.454131823062568
0
LWPOLYLINE
5
132
100
AcDbEntity
8
0
100
AcDbPolyline
90
4
70
1
43
0.0
10
235.33693195294373
20
-73.454131823062568
10
235.33693195294373
20
-70.954131823062568
10
265.3369319529437
20
-70.954131823062568
10
265.3369319529437
20
-73.454131823062568
0
LWPOLYLINE
5
133
100
AcDbEntity
8
0
100
AcDbPolyline
90
4
70
1
43
0.0
10
35.336931952943722
20
-149.45413182306257
10
35.336931952943722
20
-146.95413182306257
10
65.336931952943729
20
-146.95413182306257
10
65.336931952943729
20
-149.45413182306257
0
LWPOLYLINE
5
134
100
AcDbEntity
8
0
100
AcDbPolyline
90
4
70
1
43
0.0
10
235.33693195294373
20
-187.45413182306254
10
235.33693195294373
20
-184.95413182306254
10
265.3369319529437
20
-184.95413182306254
10
265.3369319529437
20
-187.45413182306254
0
LWPOLYLINE
5
135
100
AcDbEntity
8
0
100
AcDbPolyline
90
4
70
1
43
0.0
10
168.67026528627704
20
-187.45413182306254
10
168.67026528627704
20
-184.95413182306254
10
198.67026528627704
20
-184.95413182306254
10
198.67026528627707
20
-187.45413182306254
0
LWPOLYLINE
5
136
100
AcDbEntity
8
0
100
AcDbPolyline
90
4
70
1
43
0.0
10
102.0035986196104
20
-187.45413182306254
10
102.0035986196104
20
-184.95413182306254
10
132.00359861961039
20
-184.95413182306254
10
132.00359861961039
20
-187.45413182306254
0
LWPOLYLINE
5
137
100
AcDbEntity
8
0
100
AcDbPolyline
90
4
70
1
43
0.0
10
35.336931952943722
20
-187.45413182306254
10
35.336931952943722
20
-184.95413182306254
10
65.336931952943729
20
-184.95413182306254
10
65.336931952943729
20
-187.45413182306254
0
LWPOLYLINE
5
138
100
AcDbEntity
8
0
100
AcDbPolyline
90
4
70
1
43
0.0
10
235.33693195294373
20
-225.45413182306254
10
235.33693195294373
20
-222.95413182306254
10
265.3369319529437
20
-222.95413182306254
10
265.3369319529437
20
-225.45413182306254
0
LWPOLYLINE
5
139
100
AcDbEntity
8
0
100
AcDbPolyline
90
4
70
1
43
0.0
10
168.67026528627704
20
-225.45413182306254
10
168.67026528627704
20
-222.95413182306254
10
198.67026528627704
20
-222.95413182306254
10
198.67026528627707
20
-225.45413182306254
0
LWPOLYLINE
5
140
100
AcDbEntity
8
0
100
AcDbPolyline
90
4
70
1
43
0.0
10
102.0035986196104
20
-225.45413182306254
10
102.0035986196104
20
-222.95413182306254
10
132.00359861961039
20
-222.95413182306254
10
132.00359861961039
20
-225.45413182306254
0
LWPOLYLINE
5
141
100
AcDbEntity
8
0
100
AcDbPolyline
90
4
70
1
43
0.0
10
35.336931952943722
20
-225.45413182306254
10
35.336931952943722
20
-222.95413182306254
10
65.336931952943729
20
-222.95413182306254
10
65.336931952943729
20
-225.45413182306254
0
LWPOLYLINE
5
142
100
AcDbEntity
8
0
100
AcDbPolyline
90
4
70
1
43
0.0
10
35.336931952943722
20
-73.454131823062568
10
35.336931952943722
20
-70.954131823062568
10
65.336931952943729
20
-70.954131823062568
10
65.336931952943729
20
-73.454131823062568
0
LWPOLYLINE
5
143
100
AcDbEntity
8
0
100
AcDbPolyline
90
4
70
1
43
0.0
10
102.0035986196104
20
-111.45413182306257
10
102.0035986196104
20
-108.95413182306257
10
132.00359861961039
20
-108.95413182306257
10
132.00359861961039
20
-111.45413182306257
0
LWPOLYLINE
5
144
100
AcDbEntity
8
0
100
AcDbPolyline
90
4
70
1
43
0.0
10
102.0035986196104
20
-73.454131823062568
10
102.0035986196104
20
-70.954131823062568
10
132.00359861961039
20
-70.954131823062568
10
132.00359861961039
20
-73.454131823062568
0
LWPOLYLINE
5
145
100
AcDbEntity
8
0
100
AcDbPolyline
90
4
70
1
43
0.0
10
168.67026528627704
20
-111.45413182306257
10
168.67026528627704
20
-108.95413182306257
10
198.67026528627704
20
-108.95413182306257
10
198.67026528627707
20
-111.45413182306257
0
LWPOLYLINE
5
146
100
AcDbEntity
8
0
100
AcDbPolyline
90
4
70
1
43
0.0
10
235.33693195294373
20
-111.45413182306257
10
235.33693195294373
20
-108.95413182306257
10
265.3369319529437
20
-108.95413182306257
10
265.3369319529437
20
-111.45413182306257
0
LWPOLYLINE
5
147
100
AcDbEntity
8
0
100
AcDbPolyline
90
4
70
1
43
0.0
10
102.0035986196104
20
-149.45413182306257
10
102.0035986196104
20
-146.95413182306257
10
132.00359861961039
20
-146.95413182306257
10
132.00359861961039
20
-149.45413182306257
0
LWPOLYLINE
5
148
100
AcDbEntity
8
0
100
AcDbPolyline
90
4
70
1
43
0.0
10
168.67026528627704
20
-149.45413182306257
10
168.67026528627704
20
-146.95413182306257
10
198.67026528627704
20
-146.95413182306257
10
198.67026528627707
20
-149.45413182306257
0
LWPOLYLINE
5
149
100
AcDbEntity
8
0
100
AcDbPolyline
90
4
70
1
43
0.0
10
235.33693195294373
20
-149.45413182306257
10
235.33693195294373
20
-146.95413182306257
10
265.3369319529437
20
-146.95413182306257
10
265.3369319529437
20
-149.45413182306257
0
LWPOLYLINE
5
150
100
AcDbEntity
8
0
100
AcDbPolyline
90
4
70
1
43
0.0
10
35.336931952943722
20
-111.45413182306257
10
35.336931952943722
20
-108.95413182306257
10
65.336931952943729
20
-108.95413182306257
10
65.336931952943729
20
-111.45413182306257
0
LWPOLYLINE
5
151
100
AcDbEntity
8
0
100
AcDbPolyline
90
40
70
1
43
0.0
10
0
20
-172.55580922147277
10
2.5
20
-172.55580922147277
10
2.5000000000000004
20
-212.3058092214728
10
0
20
-212.3058092214728
10
0
20
-250
10
300
20
-250
10
300
20
-212.3058092214728
10
297.5
20
-212.3058092214728
10
297.5
20
-172.55580922147277
10
300
20
-172.55580922147277
10
300
20
-144.875
10
297.5
20
-144.875
10
297.5
20
-105.12500000000001
10
300
20
-105.12499999999997
10
300
20
-77.444190778527229
10
297.5
20
-77.444190778527229
10
297.5
20
-37.694190778527229
10
300
20
-37.694190778527229
10
300
20
0
10
266.9112988961781
20
0
10
266.9112988961781
20
-2.4999999999999973
10
227.1612988961781
20
-2.4999999999999973
10
227.1612988961781
20
0
10
169.80714285714285
20
0
10
169.80714285714285
20
-2.5
10
130.05714285714285
20
-2.5
10
130.05714285714285
20
0
10
72.861881696813811
20
0
10
72.861881696813811
20
-2.5
10
33.111881696813811
20
-2.4999999999999996
10
33.111881696813811
20
0
10
0
20
0
10
0
20
-37.694190778527229
10
2.5000000000000004
20
-37.694190778527229
10
2.5
20
-77.444190778527229
10
0
20
-77.444190778527229
10
0
20
-105.125
10
2.5000000000000351
20
-105.125
10
2.5000000000000351
20
-144.875
10
0
20
-144.875
0
LWPOLYLINE
5
152
100
AcDbEntity
8
0
100
AcDbPolyline
90
52
70
1
43
0.0
10
296.4707967414983
20
12.181706717361047
10
296.4707967414983
20
56.206988875874615
10
298.9707967414983
20
56.206988875874615
10
298.9707967414983
20
96.2069888758746
10
296.4707967414983
20
96.206988875874629
10
296.4707967414983
20
139.6817067173611
10
298.97079674149825
20
139.6817067173611
10
298.97079674149825
20
179.68170671736107
10
296.4707967414983
20
179.68170671736112
10
296.4707967414983
20
223.15642455884756
10
298.9707967414983
20
223.15642455884756
10
298.97079674149825
20
263.15642455884756
10
296.4707967414983
20
263.15642455884756
10
296.47079674149825
20
307.18170671736112
10
265.8820956376764
20
307.18170671736112
10
265.8820956376764
20
309.68170671736112
10
225.8820956376764
20
309.68170671736112
10
225.88209563767637
20
307.18170671736112
10
168.52793959864113
20
307.18170671736112
10
168.52793959864113
20
309.68170671736112
10
129.27793959864113
20
309.68170671736112
10
129.27793959864113
20
307.18170671736112
10
72.082678438312101
20
307.18170671736107
10
72.082678438312101
20
309.68170671736107
10
32.082678438312122
20
309.68170671736107
10
32.082678438312122
20
307.18170671736107
10
1.4707967414983336
20
307.18170671736107
10
1.4707967414983336
20
263.1564245588475
10
-1.0292032585016662
20
263.1564245588475
10
-1.0292032585016597
20
223.15642455884753
10
1.4707967414983225
20
223.15642455884753
10
1.4707967414983336
20
179.68170671736107
10
-1.0292032585016662
20
179.68170671736107
10
-1.0292032585016591
20
139.68170671736107
10
1.470796741498327
20
139.68170671736107
10
1.4707967414983336
20
96.206988875874586
10
-1.0292032585016662
20
96.206988875874572
10
-1.0292032585016686
20
56.206988875874586
10
1.4707967414983314
20
56.206988875874586
10
1.4707967414983303
20
12.181706717361052
10
32.082678438312165
20
12.181706717361038
10
32.082678438312165
20
9.6817067173610383
10
72.082678438312158
20
9.6817067173610454
10
72.082678438312158
20
12.181706717361045
10
129.27793959864121
20
12.181706717361042
10
129.27793959864118
20
9.6817067173610383
10
168.52793959864118
20
9.6817067173610312
10
168.52793959864118
20
12.181706717361028
10
225.88209563767646
20
12.181706717361038
10
225.88209563767649
20
9.6817067173610383
10
265.88209563767646
20
9.6817067173610383
10
265.88209563767646
20
12.181706717361038
0
LWPOLYLINE
5
153
100
AcDbEntity
8
0
100
AcDbPolyline
90
40
70
1
43
0.0
10
-21.414959898678241
20
96.0819888758746
10
-18.914959898678241
20
96.0819888758746
10
-18.914959898678241
20
139.6638495745039
10
-21.414959898678241
20
139.6638495745039
10
-21.414959898678241
20
179.4138495745039
10
-18.914959898678241
20
179.4138495745039
10
-18.914959898678163
20
223.28142455884745
10
-21.414959898678166
20
223.2814245588475
10
-21.414959898678244
20
263.03142455884756
10
-18.914959898678241
20
263.03142455884756
10
-18.914959898678241
20
307.18170671736101
10
-56.609150677205449
20
307.18170671736095
10
-56.609150677205449
20
309.68170671736095
10
-96.609150677205449
20
309.68170671736095
10
-96.609150677205449
20
307.18170671736095
10
-123.53995989867825
20
307.18170671736095
10
-123.53995989867825
20
309.68170671736095
10
-163.53995989867826
20
309.68170671736101
10
-163.53995989867826
20
307.18170671736101
10
-191.22076912015103
20
307.18170671736107
10
-191.220769120151
20
309.68170671736107
10
-231.22076912015103
20
309.68170671736107
10
-231.22076912015103
20
307.18170671736107
10
-268.91495989867826
20
307.18170671736107
10
-268.91495989867826
20
12.181706717361038
10
-231.22076912015103
20
12.181706717361038
10
-231.22076912015103
20
9.6817067173610365
10
-191.220769120151
20
9.6817067173610365
10
-191.22076912015103
20
12.181706717361038
10
-163.53995989867826
20
12.181706717361038
10
-163.53995989867826
20
9.6817067173610365
10
-123.53995989867826
20
9.6817067173610365
10
-123.53995989867826
20
12.181706717361038
10
-96.609150677205463
20
12.181706717361038
10
-96.609150677205463
20
9.6817067173610365
10
-56.609150677205463
20
9.6817067173610365
10
-56.609150677205463
20
12.181706717361038
10
-18.914959898678241
20
12.181706717361038
10
-18.914959898678241
20
56.331988875874579
10
-21.414959898678244
20
56.331988875874586
0
LWPOLYLINE
5
154
100
AcDbEntity
8
0
100
AcDbPolyline
90
40
70
1
43
0.0
10
278.58504010132174
20
446.08198887587463
10
281.08504010132174
20
446.08198887587463
10
281.08504010132174
20
489.66384957450384
10
278.58504010132174
20
489.66384957450384
10
278.58504010132174
20
529.41384957450384
10
281.08504010132174
20
529.41384957450384
10
281.08504010132185
20
573.28142455884745
10
278.58504010132185
20
573.28142455884756
10
278.58504010132174
20
613.03142455884756
10
281.08504010132174
20
613.03142455884756
10
281.08504010132174
20
657.18170671736084
10
243.39084932279457
20
657.18170671736084
10
243.39084932279457
20
659.68170671736084
10
203.39084932279457
20
659.68170671736084
10
203.39084932279457
20
657.18170671736084
10
176.46004010132174
20
657.18170671736084
10
176.46004010132174
20
659.68170671736107
10
136.46004010132174
20
659.68170671736107
10
136.46004010132174
20
657.18170671736107
10
108.77923087984897
20
657.18170671736107
10
108.779230879849
20
659.68170671736107
10
68.779230879848967
20
659.68170671736107
10
68.779230879848967
20
657.18170671736107
10
31.085040101321759
20
657.18170671736107
10
31.085040101321759
20
362.18170671736107
10
68.779230879848967
20
362.18170671736107
10
68.779230879848967
20
359.68170671736107
10
108.779230879849
20
359.68170671736107
10
108.77923087984897
20
362.18170671736107
10
136.46004010132174
20
362.18170671736107
10
136.46004010132174
20
359.68170671736107
10
176.46004010132174
20
359.68170671736107
10
176.46004010132174
20
362.18170671736107
10
203.39084932279457
20
362.18170671736107
10
203.39084932279457
20
359.68170671736107
10
243.39084932279457
20
359.68170671736107
10
243.39084932279457
20
362.18170671736107
10
281.08504010132174
20
362.18170671736107
10
281.08504010132174
20
406.33198887587463
10
278.58504010132174
20
406.33198887587463
0
ENDSEC
0
SECTION
2
OBJECTS
0
DICTIONARY
5
C
100
AcDbDictionary
3
ACAD_GROUP
350
D
3
ACAD_MLINESTYLE
350
17
0
DICTIONARY
5
D
100
AcDbDictionary
0
DICTIONARY
5
1A
330
C
100
AcDbDictionary
0
DICTIONARY
5
17
100
AcDbDictionary
0
ENDSEC
0
EOF
